<svg width="60" height="60" viewBox="0 0 60 60" fill="none" xmlns="http://www.w3.org/2000/svg">
<path d="M29.9999 48.5205V39.1764M29.9999 11.4785V20.8099M11.4839 29.9945H20.6534M48.5259 29.9945L39.2437 29.9945" stroke="#D6C7FF" stroke-width="2"/>
<g filter="url(#filter0_d_6748_53905)">
<rect x="25.0371" y="25.0537" width="9.90014" height="9.90014" rx="0.569292" fill="url(#paint0_linear_6748_53905)" shape-rendering="crispEdges"/>
<rect x="24.7716" y="24.7882" width="10.4312" height="10.4312" rx="0.834823" stroke="url(#paint1_linear_6748_53905)" stroke-width="0.531063" shape-rendering="crispEdges"/>
</g>
<rect x="23.9878" y="24.0039" width="12" height="12" rx="0.920051" fill="#5900FF"/>
<path d="M5.28418 38.5117C5.51697 38.5649 5.75311 38.611 5.99316 38.6455C6.51043 38.7197 7.01894 38.8212 7.51855 38.9443C4.06815 42.704 4.16376 48.5504 7.80664 52.1934C11.0099 55.3965 15.9155 55.8544 19.6094 53.5732C19.7905 54.236 20.032 54.8709 20.3271 55.4727C15.9038 58.0034 10.1694 57.3841 6.39258 53.6074C2.27605 49.4908 1.90722 43.0467 5.28418 38.5117ZM54.7168 38.5117C58.093 43.0467 57.7237 49.4909 53.6074 53.6074C49.8291 57.3853 44.0918 58.0045 39.668 55.4707C39.9631 54.8688 40.2057 54.2342 40.3867 53.5713C44.0808 55.8551 48.9887 55.3976 52.1934 52.1934C55.8366 48.5499 55.9313 42.7037 52.4805 38.9443C52.9804 38.8212 53.4893 38.7198 54.0068 38.6455C54.2472 38.611 54.4837 38.565 54.7168 38.5117ZM6.39258 6.39258C10.1696 2.61574 15.9047 1.99465 20.3281 4.52539C20.0328 5.1273 19.7896 5.76187 19.6084 6.4248C15.9148 4.14454 11.0098 4.60365 7.80664 7.80664C4.16393 11.4498 4.06844 17.2953 7.51855 21.0547C7.01887 21.1779 6.51051 21.2812 5.99316 21.3555C5.75324 21.3899 5.51685 21.4342 5.28418 21.4873C1.90744 16.9526 2.27629 10.5094 6.39258 6.39258ZM39.668 4.52734C44.0918 1.99374 49.8293 2.61398 53.6074 6.3916C57.7241 10.5084 58.0921 16.9522 54.7148 21.4873C54.4825 21.4343 54.2464 21.3899 54.0068 21.3555C53.4891 21.2812 52.9805 21.1779 52.4805 21.0547C55.9313 17.295 55.8362 11.4497 52.1934 7.80664C48.9888 4.60215 44.0802 4.14337 40.3857 6.42773C40.2047 5.76462 39.9633 5.12942 39.668 4.52734Z" fill="#6E6EFF"/>
<path d="M29.998 1L29.9981 0H29.998V1ZM38.1338 7.78223L39.1174 7.60213L39.1174 7.6021L38.1338 7.78223ZM53.6514 23.8301L53.5093 24.8199L53.5093 24.8199L53.6514 23.8301ZM59 30H60V29.9999L59 30ZM53.6514 36.1709L53.7934 37.1608L53.7934 37.1608L53.6514 36.1709ZM38.1338 52.2188L39.1174 52.3989L39.1174 52.3988L38.1338 52.2188ZM29.998 59V60H29.9981L29.998 59ZM21.8613 52.2188L22.845 52.0386L22.845 52.0385L21.8613 52.2188ZM6.34863 36.1709L6.20658 37.1608L6.20661 37.1608L6.34863 36.1709ZM1 30L0 29.9999V30H1ZM6.34863 23.8301L6.49069 24.8199L6.49079 24.8199L6.34863 23.8301ZM21.8613 7.78223L22.845 7.96239L22.845 7.96236L21.8613 7.78223ZM21.6113 50.8542L20.6277 51.0344L21.6113 50.8542ZM38.3821 50.8623L37.3985 50.6822L38.3821 50.8623ZM29.998 1L29.998 2C33.5085 2.00019 36.5177 4.50896 37.1501 7.96236L38.1338 7.78223L39.1174 7.6021C38.3111 3.19915 34.4745 0.000245631 29.9981 0L29.998 1ZM38.1338 7.78223L37.1501 7.96232L37.3983 9.31771L38.3819 9.13762L39.3656 8.95752L39.1174 7.60213L38.1338 7.78223ZM53.6514 23.8301L53.5093 24.8199C56.0863 25.1898 57.9998 27.397 58 30.0001L59 30L60 29.9999C59.9998 26.4019 57.3548 23.3513 53.7934 22.8402L53.6514 23.8301ZM59 30H58C58 32.6033 56.0863 34.8112 53.5093 35.181L53.6514 36.1709L53.7934 37.1608C57.355 36.6496 60 33.5982 60 30H59ZM38.3821 50.8623L37.3985 50.6822L37.1501 52.0387L38.1338 52.2188L39.1174 52.3988L39.3658 51.0424L38.3821 50.8623ZM38.1338 52.2188L37.1502 52.0386C36.5176 55.4916 33.5085 57.9998 29.998 58L29.998 59L29.9981 60C34.4742 59.9998 38.3109 56.8017 39.1174 52.3989L38.1338 52.2188ZM29.998 59V58C26.4873 58 23.4775 55.4917 22.845 52.0386L21.8613 52.2188L20.8777 52.3989C21.6843 56.8019 25.5218 60 29.998 60V59ZM21.8613 52.2188L22.845 52.0385L22.595 50.674L21.6113 50.8542L20.6277 51.0344L20.8777 52.399L21.8613 52.2188ZM6.34863 36.1709L6.49069 35.181C3.91374 34.8112 2 32.6033 2 30H1H0C1.78814e-07 33.5982 2.64495 36.6496 6.20658 37.1608L6.34863 36.1709ZM1 30L2 30.0001C2.00016 27.397 3.91374 25.1898 6.49069 24.8199L6.34863 23.8301L6.20658 22.8402C2.64522 23.3513 0.000222147 26.4019 0 29.9999L1 30ZM21.612 9.14348L22.5956 9.32364L22.845 7.96239L21.8613 7.78223L20.8777 7.60207L20.6284 8.96332L21.612 9.14348ZM21.8613 7.78223L22.845 7.96236C23.4774 4.5089 26.4872 2 29.998 2V1V0C25.5215 2.98023e-07 21.684 3.1989 20.8777 7.6021L21.8613 7.78223ZM6.34863 23.8301L6.49079 24.8199C14.6308 23.6509 21.1141 17.4126 22.5956 9.32364L21.612 9.14348L20.6284 8.96332C19.3016 16.207 13.4959 21.7934 6.20648 22.8402L6.34863 23.8301ZM21.6113 50.8542L22.595 50.674C21.1132 42.586 14.63 36.3488 6.49065 35.181L6.34863 36.1709L6.20661 37.1608C13.4952 38.2065 19.3009 43.7917 20.6277 51.0344L21.6113 50.8542ZM53.6514 36.1709L53.5093 35.181C45.3661 36.3494 38.8799 42.59 37.3985 50.6822L38.3821 50.8623L39.3658 51.0424C40.6925 43.7957 46.5009 38.207 53.7934 37.1608L53.6514 36.1709ZM38.3819 9.13762L37.3983 9.31771C38.8799 17.41 45.3659 23.651 53.5093 24.8199L53.6514 23.8301L53.7935 22.8402C46.5008 21.7934 40.6924 16.2044 39.3656 8.95752L38.3819 9.13762Z" fill="#5900FF"/>
<rect x="20.6997" y="20.7119" width="18.5752" height="18.5752" stroke="#D6C7FF" stroke-width="2"/>
<rect x="28" y="9.47852" width="4" height="4" rx="0.408844" fill="#6E6EFF"/>
<rect x="9.48389" y="9.47852" width="6" height="6" rx="0.919898" fill="#D6C7FF"/>
<rect x="18.6997" y="18.7119" width="4" height="4" rx="0.613266" fill="#D6C7FF"/>
<rect x="37.2749" y="18.7119" width="4" height="4" rx="0.613266" fill="#D6C7FF"/>
<rect x="18.6997" y="37.2959" width="4" height="4" rx="0.613266" fill="#D6C7FF"/>
<rect x="37.2749" y="37.2959" width="4" height="4" rx="0.613266" fill="#D6C7FF"/>
<rect x="44.521" y="9.47852" width="6" height="6" rx="0.919898" fill="#D6C7FF"/>
<rect x="9.48389" y="43.5205" width="6" height="6" rx="0.919898" fill="#D6C7FF"/>
<rect x="44.521" y="43.5205" width="6" height="6" rx="0.919898" fill="#D6C7FF"/>
<rect x="28" y="46.5205" width="4" height="4" rx="0.408844" fill="#6E6EFF"/>
<rect x="50.521" y="28" width="4" height="4" rx="0.408844" transform="rotate(90 50.521 28)" fill="#6E6EFF"/>
<rect x="13.479" y="28" width="4" height="4" rx="0.408844" transform="rotate(90 13.479 28)" fill="#6E6EFF"/>
<defs>
<filter id="filter0_d_6748_53905" x="22.9877" y="23.7634" width="13.9986" height="13.9991" filterUnits="userSpaceOnUse" color-interpolation-filters="sRGB">
<feFlood flood-opacity="0" result="BackgroundImageFix"/>
<feColorMatrix in="SourceAlpha" type="matrix" values="0 0 0 0 0 0 0 0 0 0 0 0 0 0 0 0 0 0 127 0" result="hardAlpha"/>
<feOffset dy="0.759055"/>
<feGaussianBlur stdDeviation="0.759055"/>
<feComposite in2="hardAlpha" operator="out"/>
<feColorMatrix type="matrix" values="0 0 0 0 0 0 0 0 0 0 0 0 0 0 0 0 0 0 0.1 0"/>
<feBlend mode="normal" in2="BackgroundImageFix" result="effect1_dropShadow_6748_53905"/>
<feBlend mode="normal" in="SourceGraphic" in2="effect1_dropShadow_6748_53905" result="shape"/>
</filter>
<linearGradient id="paint0_linear_6748_53905" x1="29.9872" y1="25.0537" x2="29.9872" y2="34.9539" gradientUnits="userSpaceOnUse">
<stop stop-color="white"/>
<stop offset="1" stop-color="#D3E0FF"/>
</linearGradient>
<linearGradient id="paint1_linear_6748_53905" x1="29.9872" y1="25.0537" x2="29.9872" y2="34.9539" gradientUnits="userSpaceOnUse">
<stop stop-color="white" stop-opacity="0.4"/>
<stop offset="1" stop-color="white" stop-opacity="0.2"/>
</linearGradient>
</defs>
</svg>
